# xmcd
#
# Track frame offsets: 
#        150
#        17491
#        40612
#        61000
#        80692
#        101783
#        119802
#        141546
#        157185
#
# Disc length: 2317 seconds
#
# Revision: 6
# Processed by: cddbd v1.5PL3 Copyright (c) Steve Scherf et al.
# Submitted via: ExactAudioCopy v0.95a5
#
DISCID=7b090b09
DTITLE=Glen, Marla - This is Marla Glen
DYEAR=1900
DGENRE=Blues
TTITLE0=The Cost Of Freedom
TTITLE1=Believer
TTITLE2=Destiny (To Get Up Again)
TTITLE3=Enough
TTITLE4=Personal
TTITLE5=Control
TTITLE6=Travel
TTITLE7=Feet On The Ground
TTITLE8=You Hurt Me
EXTD=ID3G:   0
EXTT0=
EXTT1=
EXTT2=
EXTT3=
EXTT4=
EXTT5=
EXTT6=
EXTT7=
EXTT8=
PLAYORDER=
